<?xml version="1.0" encoding="UTF-8"?>
<svg id="Layer_1" xmlns="http://www.w3.org/2000/svg" version="1.1" viewBox="0 0 64 64">
  <!-- Generator: Adobe Illustrator 30.0.0, SVG Export Plug-In . SVG Version: 2.1.1 Build 123)  -->
  <defs>
    <style>
      .st0 {
        fill: #c5a059;
      }
    </style>
  </defs>
  <path class="st0" d="M17.23,24.42h-2.95c-7.07,0-12.82-6.61-12.82-14.73,0-2.44,1.77-4.43,3.95-4.43h11.82c.55,0,1,.45,1,1s-.45,1-1,1H5.41c-1.08,0-1.95,1.09-1.95,2.43,0,7.02,4.85,12.73,10.82,12.73h2.95c.55,0,1,.45,1,1s-.45,1-1,1Z"/>
  <path class="st0" d="M40.86,31.28h-20.68c-2.18,0-3.95-1.99-3.95-4.43V6.25c0-2.44,1.77-4.43,3.95-4.43h38.41c2.18,0,3.95,1.99,3.95,4.43,0,13.8-9.73,25.03-21.68,25.03ZM20.18,3.82c-1.08,0-1.95,1.09-1.95,2.43v20.6c0,1.34.88,2.43,1.95,2.43h20.68c10.85,0,19.68-10.33,19.68-23.03,0-1.34-.88-2.43-1.95-2.43H20.18Z"/>
  <path class="st0" d="M23.14,48.44c-.55,0-1-.45-1-1v-17.16c0-.55.45-1,1-1s1,.45,1,1v17.16c0,.55-.45,1-1,1Z"/>
  <path class="st0" d="M40.86,48.44c-.55,0-1-.45-1-1v-17.16c0-.55.45-1,1-1s1,.45,1,1v17.16c0,.55-.45,1-1,1Z"/>
  <path class="st0" d="M49.73,62.18H14.27c-2.18,0-3.95-1.99-3.95-4.43,0-6.23,4.42-11.3,9.86-11.3h23.64c5.44,0,9.86,5.07,9.86,11.3,0,2.44-1.77,4.43-3.95,4.43ZM20.18,48.45c-4.33,0-7.86,4.17-7.86,9.3,0,1.34.88,2.43,1.95,2.43h35.46c1.08,0,1.95-1.09,1.95-2.43,0-5.13-3.53-9.3-7.86-9.3h-23.64Z"/>
</svg>